<svg width="512" height="512" viewBox="0 0 512 512" fill="none" xmlns="http://www.w3.org/2000/svg">
<path d="M291.034 320.468V178.92H356.386V420H262.45L212.892 258.13L172.91 420H112.643L12 133H78.4664L146.737 319.091L184.308 165.831H243.542L291.034 320.468Z" fill="white"/>
<path d="M290.788 92H357.013V197.083C368.571 192.492 381.132 189.974 394.264 189.974C451.412 189.974 497.738 237.654 497.738 296.469V420H431.515V296.469C431.515 275.296 414.837 258.13 394.264 258.13C373.699 258.13 357.026 275.279 357.013 296.44V420H290.788V92Z" fill="white"/>
<path d="M435.262 188.112V92H499V188.112H435.262Z" fill="white"/>
</svg>
