<svg width="32" height="32" viewBox="0 0 32 32" fill="none" xmlns="http://www.w3.org/2000/svg">
<path d="M18.0528 19.7774V6.41015H21.882V25.6094H16.3779L13.4741 16.1248L11.1314 25.6094H7.60018L1.70312 8.79297H5.59764L9.59787 19.6967L11.7993 10.7167H15.27L18.0528 19.7774Z" fill="white"/>
<path d="M18.0384 6.39062H21.9187V12.5478C22.596 12.2788 23.332 12.1313 24.1014 12.1313C27.4499 12.1313 30.1643 14.925 30.1643 18.3712V25.6094H26.2841V18.3712C26.2841 17.1306 25.3069 16.1248 24.1014 16.1248C22.8964 16.1248 21.9195 17.1296 21.9187 18.3695V25.6094H18.0384V6.39062Z" fill="white"/>
<path d="M26.5036 12.0222V6.39062H30.2383V12.0222H26.5036Z" fill="white"/>
</svg>
